# xmcd CD database file generated by MAGIX_Freedb v0.9beta0
# 
# Track frame offsets:
#      150
#      14860
#      33590
#      47642
#      63362
#      74630
#      89812
#      100642
#      116835
#      134385
#      149517
#      164125
#      178170
#      195637
# 
# Disc length: 2803 seconds
# 
# Revision: 0 
# Processed by: cddbd v1.4PL0 Copyright (c) Steve Scherf et al.
# Submitted via: MAGIX_Freedb v0.9beta0
# 
DISCID=e10af10e
DTITLE=America - Special
DYEAR=1900
DGENRE=
TTITLE0=America - Survival
TTITLE1=America - A horse with no name
TTITLE2=America - I need you
TTITLE3=America - Tin man
TTITLE4=America - Lonely people
TTITLE5=America - Sister golden hair
TTITLE6=America - Woman tonight
TTITLE7=America - Nothing's so far magic
TTITLE8=America - You can do magic
TTITLE9=America - Another try
TTITLE10=America - Old man took
TTITLE11=America - Everyone meet is from California
TTITLE12=America - Right before your eyes
TTITLE13=America - To each miss own
EXTD=
EXTT0=
EXTT1=
EXTT2=
EXTT3=
EXTT4=
EXTT5=
EXTT6=
EXTT7=
EXTT8=
EXTT9=
EXTT10=
EXTT11=
EXTT12=
EXTT13=
PLAYORDER=
